# xmcd
#
# Track frame offsets:
#	225
#	13475
#	26760
#	38748
#	50720
#	62753
#	74774
#	86703
#	98680
#	110321
#	121958
#	134525
#	147093
#	160871
#	174643
#	186903
#	199173
#	211005
#	222831
#	234564
#	246293
#	251130
#	255966
#	260797
#	265580
#	270385
#	275204
#	279986
#	284754
#	289590
#	294351
#	296942
#	299476
#	302090
#	304643
#	307175
#	309716
#	312278
#	314831
#	317369
#	319918
#	321366
#	322803
#	324248
#	325664
#	327068
#	328510
#	329919
#	331336
#	332797
#
# Disc length: 4454 seconds
#
# Revision: 1
# Processed by: cddbd v1.5.2PL0 Copyright (c) Steve Scherf et al.
# Submitted via: audiograbber 1.83.01
#
DISCID=26116332
DTITLE=Westar Music - WSR127
DYEAR=2002
DGENRE=R&B
TTITLE0=Cant Be Wrong
TTITLE1=Cant Be Wrong
TTITLE2=Slide on By
TTITLE3=Slide on By
TTITLE4=Making Tracks
TTITLE5=Making Tracks
TTITLE6=Lay It Down
TTITLE7=Lay It Down
TTITLE8=Answer Back
TTITLE9=Answer Back
TTITLE10=Grinding Home
TTITLE11=Grinding Home
TTITLE12=Liquid Light
TTITLE13=Liquid Light
TTITLE14=You Wont Be Alone
TTITLE15=You Wont Be Alone
TTITLE16=Take My Breath Away
TTITLE17=Take My Breath Away
TTITLE18=Velvet Moonlight
TTITLE19=Velvet Moonlight
TTITLE20=Cant Be Wrong
TTITLE21=Slide on By
TTITLE22=Making Tracks
TTITLE23=Lay It Down
TTITLE24=Answer Back
TTITLE25=Grinding Home
TTITLE26=Liquid Light
TTITLE27=You Wont Be Alone
TTITLE28=Take My Breath Away
TTITLE29=Velvet Moonlight
TTITLE30=Cant Be Wrong
TTITLE31=Slide on By
TTITLE32=Making Tracks
TTITLE33=Lay It Down
TTITLE34=Answer Back
TTITLE35=Grinding Home
TTITLE36=Liquid Light
TTITLE37=You Wont Be Alone
TTITLE38=Take My Breath Away
TTITLE39=Velvet Moonlight
TTITLE40=Cant Be Wrong
TTITLE41=Slide on By
TTITLE42=Making Tracks
TTITLE43=Lay It Down
TTITLE44=Answer Back
TTITLE45=Grinding Home
TTITLE46=Liquid Light
TTITLE47=You Wont Be Alone
TTITLE48=Take My Breath Away
TTITLE49=Velvet Moonlight
EXTD=Rhythm and Blues That's Shameless and Smooth\nAll Music Composed by Richar
EXTD=d Friedman (ASCAP]\nAll Music Published by Westar Music Publishing (SOCAN)
EXTT0=Soulful, Self Assured, Funky
EXTT1=Soulful, Self Assured, Funky
EXTT2=Cool, Sensuous, Accented
EXTT3=Cool, Sensuous, Accented
EXTT4=Spontaneous, Upbeat, Energetic
EXTT5=Spontaneous, Upbeat, Energetic
EXTT6=Sauntering, Persuasive, Shameless
EXTT7=Sauntering, Persuasive, Shameless
EXTT8=Playful, Nimble, Lively
EXTT9=Playful, Nimble, Lively
EXTT10=Gritty, Smoky, Raw
EXTT11=Gritty, Smoky, Raw
EXTT12=Smooth, Singing, Effortless
EXTT13=Smooth, Singing, Effortless
EXTT14=Rhythmic, Warm, Plaintive
EXTT15=Rhythmic, Warm, Plaintive
EXTT16=Mellow, Caressing, Expressive
EXTT17=Mellow, Caressing, Expressive
EXTT18=Drifting, Easy, Soothing
EXTT19=Drifting, Easy, Soothing
EXTT20=Soulful, Self Assured, Funky
EXTT21=Cool, Sensuous, Accented
EXTT22=Spontaneous, Upbeat, Energetic
EXTT23=Sauntering, Persuasive, Shameless
EXTT24=Playful, Nimble, Lively
EXTT25=Gritty, Smoky, Raw
EXTT26=Smooth, Singing, Effortless
EXTT27=Rhythmic, Warm, Plaintive
EXTT28=Mellow, Caressing, Expressive
EXTT29=Drifting, Easy, Soothing
EXTT30=Soulful, Self Assured, Funky
EXTT31=Cool, Sensuous, Accented
EXTT32=Spontaneous, Upbeat, Energetic
EXTT33=Sauntering, Persuasive, Shameless
EXTT34=Playful, Nimble, Lively
EXTT35=Gritty, Smoky, Raw
EXTT36=Smooth, Singing, Effortless
EXTT37=Rhythmic, Warm, Plaintive
EXTT38=Mellow, Caressing, Expressive
EXTT39=Drifting, Easy, Soothing
EXTT40=Soulful, Self Assured, Funky
EXTT41=Cool, Sensuous, Accented
EXTT42=Spontaneous, Upbeat, Energetic
EXTT43=Sauntering, Persuasive, Shameless
EXTT44=Playful, Nimble, Lively
EXTT45=Gritty, Smoky, Raw
EXTT46=Smooth, Singing, Effortless
EXTT47=Rhythmic, Warm, Plaintive
EXTT48=Mellow, Caressing, Expressive
EXTT49=Drifting, Easy, Soothing
PLAYORDER=
